<?xml version="1.0" standalone="no"?>
<!DOCTYPE svg PUBLIC "-//W3C//DTD SVG 20010904//EN"
 "http://www.w3.org/TR/2001/REC-SVG-20010904/DTD/svg10.dtd">
<svg version="1.0" xmlns="http://www.w3.org/2000/svg"
 width="64.000000pt" height="64.000000pt" viewBox="0 0 64.000000 64.000000"
 preserveAspectRatio="xMidYMid meet">

<g transform="translate(0.000000,64.000000) scale(0.100000,-0.100000)"
fill="#000000" stroke="none">
<path d="M250 585 c0 -24 2 -25 70 -25 68 0 70 1 70 25 0 14 -4 25 -9 25 -5 0
-7 -9 -4 -20 4 -14 0 -20 -12 -20 -12 0 -16 6 -12 20 5 18 0 20 -49 20 -51 0
-54 -1 -54 -25z"/>
<path d="M264 533 c-3 -10 -10 -28 -15 -41 -12 -30 -12 -112 0 -112 5 0 12 8
14 18 4 13 5 11 6 -5 0 -13 5 -23 10 -23 5 0 12 10 16 23 l8 22 4 -22 c6 -32
23 -29 23 4 0 29 15 22 23 -12 3 -13 5 -9 6 12 1 39 10 63 23 63 6 0 8 -7 4
-15 -3 -9 0 -15 9 -15 22 0 19 54 -5 75 -11 10 -20 24 -20 32 0 9 -15 13 -50
13 -39 0 -52 -4 -56 -17z"/>
<path d="M380 414 c0 -3 7 -12 16 -21 8 -9 14 -25 12 -37 -3 -20 -9 -21 -88
-21 -81 0 -84 1 -91 25 l-7 25 -1 -27 c-1 -25 -5 -28 -36 -28 l-35 0 0 -150 0
-150 170 0 170 0 0 150 0 150 -35 0 c-34 0 -35 1 -35 39 0 26 -5 41 -16 45
-19 7 -24 8 -24 0z"/>
<path d="M80 311 c-11 -21 -14 -238 -4 -265 4 -10 18 -16 35 -16 l29 0 0 150
0 150 -25 0 c-14 0 -29 -8 -35 -19z m30 -101 c0 -27 -4 -50 -10 -50 -5 0 -10
23 -10 50 0 28 5 50 10 50 6 0 10 -22 10 -50z"/>
<path d="M500 180 l0 -150 29 0 c17 0 31 6 35 16 3 9 6 71 6 138 0 129 -5 146
-47 146 -23 0 -23 0 -23 -150z"/>
</g>
</svg>
