<?xml version="1.0" encoding="UTF-8" standalone="no" ?>
<!DOCTYPE svg PUBLIC "-//W3C//DTD SVG 1.1//EN" "http://www.w3.org/Graphics/SVG/1.1/DTD/svg11.dtd">
<svg xmlns="http://www.w3.org/2000/svg" xmlns:xlink="http://www.w3.org/1999/xlink" version="1.1" width="193.38" height="299.28" viewBox="153.31 100.36000000000001 193.38 299.28" xml:space="preserve">
<desc>Created with Fabric.js 4.6.0</desc>
<defs>
</defs>
<g transform="matrix(1 0 0 1 250 250)" id="U2NeDhvPaM-ywpgz44QNb"  >
<filter id="SVGID_524" y="-21%" height="142%" x="-22%" width="144%" >
	<feGaussianBlur in="SourceAlpha" stdDeviation="2"></feGaussianBlur>
	<feOffset dx="0" dy="0" result="oBlur" ></feOffset>
	<feFlood flood-color="rgb(255,255,255)" flood-opacity="1"/>
	<feComposite in2="oBlur" operator="in" />
	<feMerge>
		<feMergeNode></feMergeNode>
		<feMergeNode in="SourceGraphic"></feMergeNode>
	</feMerge>
</filter>
<g style="filter: url(#SVGID_524);" vector-effect="non-scaling-stroke"   >
		<g transform="matrix(0.6 0 0 0.6 -40.53 107.3)" id="aHI3Cd_t-2qziuKNfIhVk"  >
<path style="stroke: none; stroke-width: 1; stroke-dasharray: none; stroke-linecap: butt; stroke-dashoffset: 0; stroke-linejoin: miter; stroke-miterlimit: 4; fill: rgb(255,182,182); fill-rule: nonzero; opacity: 1;" vector-effect="non-scaling-stroke"  transform=" translate(-126.53, -517.29)" d="M 89.41 494.381 L 85.30199999999999 514.694 L 161.695 540.208 L 167.759 510.22799999999995 z" stroke-linecap="round" />
</g>
		<g transform="matrix(0.6 0 0 0.6 -70.07 107.91)" id="o9QXdFNL5b239n9AnFh2V"  >
<path style="stroke: none; stroke-width: 1; stroke-dasharray: none; stroke-linecap: butt; stroke-dashoffset: 0; stroke-linejoin: miter; stroke-miterlimit: 4; fill: rgb(47,46,65); fill-rule: nonzero; opacity: 1;" vector-effect="non-scaling-stroke"  transform=" translate(-190.57, -674.8)" d="M 210.35961 647.029 L 202.26842 687.03193 L 202.26809 687.03355 C 199.41908763010275 701.1122083317834 185.69732956430232 710.2163161651239 171.61832 707.36905 L 170.78991000000002 707.20145 L 184.03775000000002 641.70516 Z" stroke-linecap="round" />
</g>
		<g transform="matrix(0.6 0 0 0.6 -10.86 -105.45)" id="uIZFe7kCYjL5uSBC7Gm2F"  >
<path style="stroke: none; stroke-width: 1; stroke-dasharray: none; stroke-linecap: butt; stroke-dashoffset: 0; stroke-linejoin: miter; stroke-miterlimit: 4; fill: rgb(254,184,184); fill-rule: nonzero; opacity: 1;" vector-effect="non-scaling-stroke"  transform=" translate(-51.87, -51.87)" d="M 0 51.871 C 0 23.223440000000004 23.22344 0 51.871 0 C 80.51856000000001 0 103.742 23.22344 103.742 51.871 C 103.742 80.51856000000001 80.51856000000001 103.742 51.871 103.742 C 23.223440000000004 103.742 0 80.51856000000001 0 51.871 z" stroke-linecap="round" />
</g>
		<g transform="matrix(0.6 0 0 0.6 -11.77 -124.16)" id="RV31_4vZS1FIUXiSJRLjE"  >
<path style="stroke: none; stroke-width: 1; stroke-dasharray: none; stroke-linecap: butt; stroke-dashoffset: 0; stroke-linejoin: miter; stroke-miterlimit: 4; fill: rgb(47,46,65); fill-rule: nonzero; opacity: 1;" vector-effect="non-scaling-stroke"  transform=" translate(-287.73, -288.01)" d="M 337.69671 274.45043 C 329.9415969883869 261.8572822439397 317.8023254325471 252.57786442750688 303.61566 248.39843 L 297.24766 253.04542999999998 L 297.24766 247.01143 C 293.84062330299236 246.48996892584458 290.39219967920315 246.2890898797986 286.94766 246.41143 L 281.45366 251.38243 L 281.45366 246.82443 C 265.00836321215337 248.8680221524332 250.16704376227207 257.69587333601226 240.52166 271.17143 C 228.59065999999999 288.37143 226.57666 312.30043 238.31166 329.63842999999997 C 241.53266 319.73843 245.44266 310.44942999999995 248.66466 300.55042999999995 C 251.19649430605742 300.89555643327486 253.76259883764476 300.9079952997322 256.29766 300.5874299999999 L 260.21666 291.44242999999994 L 261.31166 300.2004299999999 C 273.45966000000004 299.14242999999993 291.47766 296.8184299999999 302.99366000000003 294.6894299999999 L 301.87366000000003 287.9704299999999 L 308.57366 293.55342999999993 C 312.10166000000004 292.7414299999999 314.19666 292.00442999999996 314.02366 291.4414299999999 C 322.58866 305.2494299999999 333.07066000000003 314.0684299999999 341.63466 327.8764299999999 C 344.88769 308.40645 348.63171 292.21742 337.69671 274.45043 Z" stroke-linecap="round" />
</g>
		<g transform="matrix(0.6 0 0 0.6 -0.73 75.8)" id="pFUPQiCWu08JO7WuUVhAN"  >
<path style="stroke: none; stroke-width: 1; stroke-dasharray: none; stroke-linecap: butt; stroke-dashoffset: 0; stroke-linejoin: miter; stroke-miterlimit: 4; fill: rgb(47,46,65); fill-rule: nonzero; opacity: 1;" vector-effect="non-scaling-stroke"  transform=" translate(-133.56, -37.36)" d="M 0 37.359 C 0 16.726190000000003 59.79685 0 133.56 0 C 207.32315 0 267.12 16.72619 267.12 37.359 C 267.12 57.99181 207.32315 74.718 133.56 74.718 C 59.796850000000006 74.718 0 57.99181 0 37.359 z" stroke-linecap="round" />
</g>
		<g transform="matrix(0.6 0 0 0.6 -9.14 -3.55)" id="EJIY0ejOZXt7BGsDtPjPZ"  >
<path style="stroke: none; stroke-width: 1; stroke-dasharray: none; stroke-linecap: butt; stroke-dashoffset: 0; stroke-linejoin: miter; stroke-miterlimit: 4; fill: rgb(108,99,255); fill-rule: nonzero; opacity: 1;" vector-effect="non-scaling-stroke"  transform=" translate(-292.11, -489.03)" d="M 400.8085 452.58848 C 399.02481 441.85748 397.18496 430.92048 392.19766 421.25348 C 388.91981999999996 414.92148000000003 383.71666 408.88748000000004 376.70254 407.63548000000003 C 375.32091302060263 407.512325587249 373.96306688396845 407.19799299211326 372.66787 406.70148 C 370.6127 405.71148 342.99453 389.94548 338.60487 387.19948 C 334.83587 384.84212 328.88612 380.47724999999997 325.88612 380.47724999999997 C 322.86806 380.41090999999994 311.2953 383.10432999999995 266.12587 379.57343999999995 C 258.5279720925745 382.6232826900898 251.17043488721288 386.2407430790452 244.11562 390.3951599999999 C 243.97011000000003 390.2992699999999 197.23378000000002 415.39649999999995 195.47792000000004 415.3304599999999 C 192.15272000000004 415.1904599999999 189.06192000000004 417.3194599999999 187.15565000000004 420.0005099999999 C 185.24989000000005 422.6815099999999 184.35585000000003 426.0005099999999 183.41981000000004 429.2095099999999 C 193.62781000000004 451.9425099999999 202.96767000000006 474.7045099999999 213.17665000000005 497.4375099999999 C 213.65465306311984 498.29376152124064 213.9086027968417 499.25689103094055 213.91493000000006 500.23750999999993 C 213.7097804690923 501.25519568250485 213.27545543981844 502.21276267617947 212.64493000000004 503.03750999999994 C 207.63858000000005 511.0795099999999 207.79776000000004 521.1945099999999 208.34464000000006 530.6465099999999 C 208.89200000000005 540.0985099999999 209.56876000000005 550.08251 205.34464000000006 558.5545099999999 C 204.19571000000005 560.88051 202.70157000000006 563.00951 201.60880000000006 565.3355099999999 C 199.04972000000006 570.6035099999999 198.12491000000006 587.4525099999998 199.61954000000006 593.1125099999999 L 386.88614000000007 598.4773099999999 C 382.85977 587.40928 400.8085 452.58848 400.8085 452.58848 Z" stroke-linecap="round" />
</g>
		<g transform="matrix(0.6 0 0 0.6 -49.39 23.58)" id="yAGSUjJ0fyOd_Rb8TZDBs"  >
<path style="stroke: none; stroke-width: 1; stroke-dasharray: none; stroke-linecap: butt; stroke-dashoffset: 0; stroke-linejoin: miter; stroke-miterlimit: 4; fill: rgb(251,190,190); fill-rule: nonzero; opacity: 1;" vector-effect="non-scaling-stroke"  transform=" translate(-225.04, -534.25)" d="M 167.23268 498.44541 C 166.8590137108251 501.1483747558206 166.821394305044 503.88720185170666 167.12068 506.59941 L 169.80468 545.14541 C 170.05668 548.77841 170.30468 552.4024099999999 170.64568 556.0264099999999 C 171.28968 563.05941 172.25168 570.0364099999999 173.44568 577.0034099999999 C 173.5018277512222 579.0630825300645 175.21489998129744 580.6884655052181 177.27468000000002 580.63641 C 189.08968000000002 583.13641 201.29668 583.0364099999999 213.35468000000003 582.35541 C 231.75468000000004 581.32841 278.82868 579.38541 281.70468000000005 575.64941 C 284.5806800000001 571.91341 282.90468000000004 565.87041 279.15468000000004 562.84941 C 275.40468000000004 559.8284100000001 213.28368000000006 552.4634100000001 213.28368000000006 552.4634100000001 C 213.89068000000006 547.6534100000001 215.72168000000005 543.12341 217.45868000000007 538.55641 C 220.57868000000008 530.45641 223.49268000000006 522.09041 223.54868000000008 513.41341 C 223.6046800000001 504.73641 220.33568000000008 495.61341 213.22768000000008 490.64241 C 207.38068000000007 486.56140999999997 199.85268000000008 485.80440999999996 192.72768000000008 485.97240999999997 C 187.54368000000008 486.12140999999997 178.5866800000001 484.87940999999995 173.85168000000007 486.90641 C 170.10469 488.55644 167.93268 494.77647 167.23268 498.44541 Z" stroke-linecap="round" />
</g>
		<g transform="matrix(0.6 0 0 0.6 25.72 88.03)" id="lg102Ji__4XS7WWSNdI2_"  >
<path style="stroke: none; stroke-width: 1; stroke-dasharray: none; stroke-linecap: butt; stroke-dashoffset: 0; stroke-linejoin: miter; stroke-miterlimit: 4; fill: rgb(47,46,65); fill-rule: nonzero; opacity: 1;" vector-effect="non-scaling-stroke"  transform=" translate(-350.22, -641.66)" d="M 401.14067 585.57847 C 404.25067 584.39247 407.67867 584.8214700000001 411.01267 585.27047 C 421.74467000000004 586.73647 432.63467 588.2404700000001 442.58167000000003 592.52747 C 447.25167000000005 594.52747 451.69767 597.19747 454.85467000000006 601.12747 C 457.65467000000007 604.66747 459.29067000000003 609.00147 460.8416700000001 613.2694700000001 L 464.42867000000007 623.0954700000001 C 465.9536628025718 626.786644668999 467.00502806422935 630.6560989205965 467.5576700000001 634.61147 C 468.67867000000007 646.3704700000001 460.6366700000001 657.4564700000001 450.5216700000001 663.56547 C 440.4066700000001 669.6744699999999 428.49867000000006 671.84947 416.89767000000006 674.12847 C 405.29667000000006 676.40747 393.65067000000005 678.92847 382.09767000000005 681.60047 C 376.70887602457003 682.9988619061123 371.24151198451364 684.0747702269492 365.72467000000006 684.82247 C 353.3586700000001 686.2224699999999 340.43267000000003 684.1594699999999 328.68267000000003 688.25047 C 324.01267 689.8854699999999 319.42667000000006 692.3134699999999 314.58267 693.4434699999999 C 311.3627513810155 694.1209091447927 308.10727594998616 694.6166922455084 304.83167000000003 694.92847 L 282.59367000000003 697.4684699999999 C 278.07162168017635 698.0732692905476 273.5190560835763 698.4224907348159 268.95767 698.51447 C 259.24467 698.51447 249.68967 696.21447 240.25767000000002 693.9144699999999 C 239.25543893002745 693.7382624803342 238.30146382463138 693.3532653842279 237.45767 692.7844699999999 C 235.96367 691.6074699999999 235.63667 689.52447 235.42167 687.63847 Q 233.99267 675.11347 232.92167 662.56147 C 232.69767000000002 659.84347 232.52967 656.90147 234.01467 654.61347 C 235.88267 651.81347 239.52567 650.93347 242.85067 650.39147 C 256.94989454044185 648.0848464569598 271.2329828421578 647.0935837249457 285.51566999999983 647.43047 C 290.94167 642.00447 299.88967 641.9764700000001 306.99766999999997 639.0244700000001 C 309.6125336680788 637.8235958340102 312.1432941823605 636.4474634830761 314.57266999999996 634.90547 C 327.286693279894 627.4877473289918 341.49480622159956 622.9984755769611 356.1626699999998 621.7644700000001 C 359.035271547286 621.6768877886983 361.88918896249993 621.2697123577346 364.67166999999995 620.55047 C 370.17166999999995 618.8414700000001 375.18866999999995 614.18947 380.83867 615.32947 C 381.53866999999997 613.39647 382.02466999999996 610.80847 383.63867 609.48247 C 384.43867 608.80047 385.43167 608.34347 386.16967 607.61447 C 387.72967 606.03647 387.86967 603.55147 387.63567 601.3474699999999 C 387.40167 599.1434699999999 386.87867 596.8834699999999 387.44867 594.7344699999999 C 387.6857569731731 593.9211297807443 388.0347641061866 593.1446982900383 388.48566999999997 592.4274699999999 C 391.27767 587.59544 395.50869 585.11143 401.14067 585.57847 Z" stroke-linecap="round" />
</g>
		<g transform="matrix(0.6 0 0 0.6 -68.53 -19.77)" id="ud0z6_Ec4cdpRAc_8E0sG"  >
<path style="stroke: none; stroke-width: 1; stroke-dasharray: none; stroke-linecap: butt; stroke-dashoffset: 0; stroke-linejoin: miter; stroke-miterlimit: 4; fill: rgb(108,99,255); fill-rule: nonzero; opacity: 1;" vector-effect="non-scaling-stroke"  transform=" translate(-193.14, -461.99)" d="M 182.87968 429.90143 C 181.96998899036356 430.8539947945935 181.26455718877241 431.98241344103644 180.80668 433.21743 C 173.25705980469175 450.23208383813324 168.79777893178587 468.4552336183977 167.63768 487.03342999999995 C 167.65803937827758 487.93935350305316 167.44924864400636 488.8357433770413 167.03068 489.63942999999995 C 166.6179014860785 490.1741202784668 166.15842800695552 490.6710744783922 165.65768 491.12442999999996 C 164.77597372148097 492.16967308829436 164.34560136992272 493.52236237417014 164.4612400701536 494.88492127793023 C 164.5768787703845 496.2474801816904 165.2290559888632 497.50829481549124 166.2743 498.39 Q 166.40163 498.49739 166.53568 498.59641999999997 C 168.07668 495.69642 171.76568 494.74841999999995 175.04468000000003 494.49641999999994 C 190.74468000000002 493.2544199999999 206.08068000000003 500.55841999999996 221.82768000000004 500.00741999999997 C 220.71668000000005 496.16841999999997 219.11868000000004 492.47941999999995 218.21268000000003 488.59441999999996 C 214.20568000000003 471.34342 224.19968000000003 452.56141999999994 218.07268000000005 435.94541999999996 C 216.84868000000006 432.62041999999997 214.80368000000004 429.35141999999996 211.58168000000006 427.89441999999997 C 210.24750263325825 427.35628599967055 208.85138029784196 426.9867637261003 207.42568000000006 426.79441999999995 C 203.44668000000004 426.07541999999995 195.52568000000005 423.00242 191.67868000000004 424.2354199999999 C 190.25868000000006 424.69341999999995 189.69868000000005 426.0284199999999 188.52168000000003 426.83541999999994 C 186.73368 427.97745 184.36169 428.39743 182.87968 429.90143 Z" stroke-linecap="round" />
</g>
		<g transform="matrix(0.6 0 0 0.6 25.43 23.19)" id="lge7Z9fP20rmpKdYrPVdY"  >
<path style="stroke: none; stroke-width: 1; stroke-dasharray: none; stroke-linecap: butt; stroke-dashoffset: 0; stroke-linejoin: miter; stroke-miterlimit: 4; fill: rgb(251,190,190); fill-rule: nonzero; opacity: 1;" vector-effect="non-scaling-stroke"  transform=" translate(-349.73, -533.59)" d="M 400.92057 486.90641 C 396.18557 484.87941 387.22857 486.12140999999997 382.04457 485.97240999999997 C 374.91957 485.80440999999996 367.39157 486.56140999999997 361.54457 490.64241 C 354.43657 495.61341 351.16757 504.73641 351.22357 513.41341 C 351.27957 522.09041 354.19357 530.45641 357.31356999999997 538.55641 C 359.05057 543.12341 360.88156999999995 547.65341 361.48857 552.4634100000001 C 361.48857 552.4634100000001 299.36757 559.8284100000001 295.61757 562.84941 C 291.86757 565.87041 290.19157 571.91341 293.06757 575.64941 C 295.94356999999997 579.38541 385.68257 583.13641 397.49757 580.63641 C 399.55735001870255 580.6884655052181 401.27042224877783 579.0630825300645 401.32657 577.0034099999999 C 402.52057 570.0364099999999 403.48257 563.05941 404.12657 556.0264099999999 C 404.46757 552.4024099999999 404.71557 548.7784099999999 404.96757 545.14541 L 407.65157000000005 506.59941 C 407.95084563661663 503.8872013676964 407.91322624792394 501.1483755159106 407.53957 498.44541 C 406.83959 494.77647 404.66758 488.55644 400.92057 486.90641 Z" stroke-linecap="round" />
</g>
		<g transform="matrix(0.6 0 0 0.6 44.57 -19.77)" id="2AHEUJQnuNM3evvqQnyGt"  >
<path style="stroke: none; stroke-width: 1; stroke-dasharray: none; stroke-linecap: butt; stroke-dashoffset: 0; stroke-linejoin: miter; stroke-miterlimit: 4; fill: rgb(108,99,255); fill-rule: nonzero; opacity: 1;" vector-effect="non-scaling-stroke"  transform=" translate(-381.64, -461.99)" d="M 386.25057 426.83542 C 385.07356999999996 426.02842 384.51356999999996 424.69342 383.09357 424.23542 C 379.24657 423.00242 371.32556999999997 426.07541999999995 367.34657 426.79442 C 365.9208698040805 426.98676423830136 364.5247475315502 427.3562864952271 363.19057 427.89442 C 359.96857 429.35142 357.92357 432.62042 356.69957 435.94542 C 350.57257 452.56142 360.56657 471.34342000000004 356.55957 488.59442 C 355.65357 492.47942 354.05557 496.16842 352.94457 500.00742 C 368.69157 500.55842 384.02756999999997 493.25442000000004 399.72757 494.49642 C 403.00657 494.74842 406.69557000000003 495.69642 408.23657000000003 498.59642 Q 408.37057000000004 498.49742000000003 408.49795 498.39000000000004 C 409.543195476637 497.5082962314493 410.1953745969396 496.2474823221497 410.311015176646 494.88492336994557 C 410.42665575635243 493.5223644177414 409.9962851050074 492.16967434928415 409.11458 491.12443 C 408.61382683058343 490.6710796951824 408.1543529091347 490.17412501684925 407.74158 489.63943 C 407.3230084946091 488.8357444361486 407.11421758684804 487.93935381732626 407.13457999999997 487.03343 C 405.97448614522045 468.4552328449774 401.51520505577577 450.23208217981227 393.96558 433.21743 C 393.50770281122755 431.9824134410365 392.80227100963646 430.8539947945936 391.89258 429.90143000000006 C 390.41058 428.39743 388.03858 427.97745 386.25057 426.83542 Z" stroke-linecap="round" />
</g>
		<g transform="matrix(0.6 0 0 0.6 38.12 113.96)" id="NsxfYnGchCDR67siZtjgm"  >
<path style="stroke: none; stroke-width: 1; stroke-dasharray: none; stroke-linecap: butt; stroke-dashoffset: 0; stroke-linejoin: miter; stroke-miterlimit: 4; fill: rgb(255,182,182); fill-rule: nonzero; opacity: 1;" vector-effect="non-scaling-stroke"  transform=" translate(-257.61, -528.38)" d="M 299.243 523.378 L 296.513 543.921 L 215.97499999999997 543.166 L 220.00499999999997 512.846 z" stroke-linecap="round" />
</g>
		<g transform="matrix(0.6 0 0 0.6 65.8 128.21)" id="YbGOiKmvznZh-cDMSK6gO"  >
<path style="stroke: none; stroke-width: 1; stroke-dasharray: none; stroke-linecap: butt; stroke-dashoffset: 0; stroke-linejoin: miter; stroke-miterlimit: 4; fill: rgb(47,46,65); fill-rule: nonzero; opacity: 1;" vector-effect="non-scaling-stroke"  transform=" translate(-417.01, -708.62)" d="M 433.12244 677.27239 L 424.31844 743.51256 L 423.48061 743.40124 C 409.24185014134747 741.5083042536617 399.2329698612654 728.4318418151285 401.12416 714.19285 L 401.12438000000003 714.19122 L 406.50168 673.734 Z" stroke-linecap="round" />
</g>
		<g transform="matrix(0.6 0 0 0.6 -22.24 89.73)" id="oHdYtSWHRaz7nSUjOt1IC"  >
<path style="stroke: none; stroke-width: 1; stroke-dasharray: none; stroke-linecap: butt; stroke-dashoffset: 0; stroke-linejoin: miter; stroke-miterlimit: 4; fill: rgb(47,46,65); fill-rule: nonzero; opacity: 1;" vector-effect="non-scaling-stroke"  transform=" translate(-270.29, -644.5)" d="M 223.03869 595.97441 C 223.03869 596.90841 221.57269 595.97441 221.43869 594.97441 C 220.41169000000002 587.41841 214.41469 581.1884100000001 207.42869000000002 578.16241 C 200.44269000000003 575.13641 192.48469000000003 574.9774100000001 184.91969 575.69641 C 173.47869 576.77941 160.63569 581.1604100000001 156.45169 591.85441 C 155.46169 594.35441 146.18769 616.61441 147.09269 621.62041 C 149.53069 634.97641 158.66469 646.39941 169.73269 654.31041 C 180.80068999999997 662.2214100000001 193.73269 666.94741 206.63269 671.21041 C 240.73888297504283 682.4588695183996 275.73142355017865 690.8163755526916 311.2396899999998 696.19441 C 316.99269 697.0634100000001 322.80269 697.8664100000001 328.31269 699.71541 C 333.24368999999996 701.36841 337.85769 703.8434100000001 342.67769 705.78641 C 353.88569 710.28641 365.94369 711.89441 377.88869 713.4734100000001 C 379.92469 713.73541 382.25969 713.92141 383.76369 712.5394100000001 C 385.70669 710.7394100000001 385.06369 707.5984100000001 384.51069 705.0114100000001 C 382.4833043212961 695.1745457699863 384.1844456005581 684.9352648540178 389.28369000000004 676.28241 C 391.28369000000004 672.9204100000001 393.88369000000006 669.4734100000001 393.50569 665.58241 C 393.05769000000004 661.04341 388.53669 657.83041 384.03469 657.10141 C 379.53269 656.37241 374.95669000000004 657.44741 370.43469 658.03541 C 368.8850014942624 658.3913471650661 367.2614144552092 658.2304986113378 365.81169 657.57741 C 365.13982404209685 657.123921103145 364.53058883259325 656.5839477331324 363.99969 655.97141 C 357.6109547708065 649.8083308834747 347.9793822019109 648.4621556950494 340.14569 652.63741 C 338.47369 653.57141 335.94569 651.48841 334.20569 650.70441 L 314.56369 641.81241 C 291.99869 631.60441 269.32169 621.3484100000001 245.44869 614.88541 C 243.54381820186154 614.5108841051003 241.7334349803683 613.7580312778301 240.12469 612.6714099999999 C 238.93868999999998 611.73741 238.08868999999999 610.4714099999999 236.99569 609.4304099999999 C 234.61369 607.17941 231.29569 606.2824099999999 228.44069 604.6854099999999 C 225.58568999999997 603.08841 222.38468 599.17742 223.03869 595.97441 Z" stroke-linecap="round" />
</g>
		<g transform="matrix(0.6 0 0 0.6 -20.08 44.12)" id="Mh5HEBGR0bQToDcf7rMzR"  >
<path style="stroke: none; stroke-width: 1; stroke-dasharray: none; stroke-linecap: butt; stroke-dashoffset: 0; stroke-linejoin: miter; stroke-miterlimit: 4; fill: rgb(251,190,190); fill-rule: nonzero; opacity: 1;" vector-effect="non-scaling-stroke"  transform=" translate(-14, -14)" d="M 0 14 C 0 6.26801 6.26801 0 14 0 C 21.73199 0 28 6.26801 28 14 C 28 21.73199 21.73199 28 14 28 C 6.26801 28 0 21.73199 0 14 z" stroke-linecap="round" />
</g>
		<g transform="matrix(0.6 0 0 0.6 -1.48 44.12)" id="QCtWVamYEHVz_nOimPO2y"  >
<path style="stroke: none; stroke-width: 1; stroke-dasharray: none; stroke-linecap: butt; stroke-dashoffset: 0; stroke-linejoin: miter; stroke-miterlimit: 4; fill: rgb(251,190,190); fill-rule: nonzero; opacity: 1;" vector-effect="non-scaling-stroke"  transform=" translate(-14, -14)" d="M 0 14 C 0 6.26801 6.26801 0 14 0 C 21.73199 0 28 6.26801 28 14 C 28 21.73199 21.73199 28 14 28 C 6.26801 28 0 21.73199 0 14 z" stroke-linecap="round" />
</g>
		<g transform="matrix(0.6 0 0 0.6 -7.33 22.96)" id="axch5LC_0adhD4axAEIv5"  >
<path style="stroke: none; stroke-width: 1; stroke-dasharray: none; stroke-linecap: butt; stroke-dashoffset: 0; stroke-linejoin: miter; stroke-miterlimit: 4; fill: rgb(63,61,86); fill-rule: nonzero; opacity: 1;" vector-effect="non-scaling-stroke"  transform=" translate(-295.14, -533.21)" d="M 391.30469 600.02441 L 198.96582 600.02441 C 194.2902340852416 600.0191255692592 190.50116492029073 596.2302756012222 190.49561 591.5546899999999 L 190.49561 474.86816 C 190.50116492029076 470.1925743987778 194.29023408524162 466.40372443074074 198.96582 466.39844 L 391.30469 466.39844 C 395.9802759147584 466.40372443074074 399.76934507970924 470.1925743987778 399.7749 474.86816 L 399.7749 591.55469 C 399.7693450797092 596.2302756012222 395.98027591475835 600.0191255692592 391.30469 600.02441 Z" stroke-linecap="round" />
</g>
		<g transform="matrix(0.6 0 0 0.6 -7.61 22.96)" id="P1-jTkVeFxWGG_aEHNoUg"  >
<path style="stroke: none; stroke-width: 1; stroke-dasharray: none; stroke-linecap: butt; stroke-dashoffset: 0; stroke-linejoin: miter; stroke-miterlimit: 4; fill: rgb(255,255,255); fill-rule: nonzero; opacity: 1;" vector-effect="non-scaling-stroke"  transform=" translate(-5.6, -5.6)" d="M 0 5.604 C 0 2.509 2.509 0 5.604 0 C 8.699 0 11.208 2.509 11.208 5.604 C 11.208 8.699 8.699 11.208 5.604 11.208 C 2.509 11.208 0 8.699 0 5.604 z" stroke-linecap="round" />
</g>
</g>
</g>
</svg>