<svg xmlns="http://www.w3.org/2000/svg" width="252" height="55" fill="none" viewBox="0 0 252 55">
  <path fill="url(#paint0_linear)" d="M37.123 1.886c1.428 1.45 1.936 3.068 1.863 4.977-.096 2.827 1.235 4.374 3.074 6.21 1.84 1.836 3.388 3.165 6.22 3.093 2.033-.073 3.727.483 5.228 2.102 1.694 1.836 2.226 4.518 1.21 6.765a6.456 6.456 0 01-3.02 3.267 6.472 6.472 0 01-8.14-1.901 6.444 6.444 0 01-1.256-4.265c.073-2.827-1.234-4.374-3.074-6.21-1.839-1.836-3.388-3.141-6.22-3.069-2.057.049-3.75-.483-5.252-2.126-1.694-1.836-2.202-4.494-1.185-6.765A6.452 6.452 0 0131.28.122a6.472 6.472 0 015.819 1.764"/>
  <path fill="url(#paint1_linear)" d="M11.251 22.423c-.678 2.513-1.04 4.519.436 6.91 1.065 1.74 1.452 3.48.774 5.582a6.234 6.234 0 01-1.972 3.003 6.25 6.25 0 01-3.304 1.419 6.494 6.494 0 01-4.287-1.043 6.466 6.466 0 01-2.377-7.938 6.48 6.48 0 013.01-3.221c2.492-1.353 3.17-3.262 3.872-5.799.653-2.489 1.04-4.47-.46-6.886a6.444 6.444 0 013.61-9.89 6.472 6.472 0 015.805 1.235 6.453 6.453 0 012.347 5.441c-.048 2.876 1.186 4.35 3.098 6.282 1.84 1.837 3.389 3.142 6.22 3.07 2.033-.073 3.727.482 5.228 2.101 1.694 1.837 2.227 4.518 1.21 6.766a6.48 6.48 0 01-3.039 3.183 6.495 6.495 0 01-8.068-1.884 6.468 6.468 0 01-1.309-4.199c.073-2.827-1.258-4.349-3.098-6.21-4.308-4.276-6.098-3.817-7.672 2.054"/>
  <path fill="url(#paint2_linear)" d="M42.62 36.63a6.297 6.297 0 00-4.115 3.384c-1.355 2.488-3.267 3.165-5.809 3.841-2.492.677-4.501 1.04-6.897-.434-1.743-1.088-3.485-1.45-5.615-.798a6.23 6.23 0 00-4.405 5.291 6.468 6.468 0 001.08 4.233 6.496 6.496 0 007.894 2.346 6.483 6.483 0 003.224-2.954c1.355-2.489 3.267-3.141 5.784-3.842 2.517-.652 4.502-1.039 6.922.46 1.743 1.062 3.485 1.449 5.59.772 2.373-.724 4.188-2.802 4.43-5.267.484-4.88-3.873-8.19-8.084-7.055"/>
  <path fill="#000000" d="M62.137 48.13h11.025V6.877H62.137V48.13z"/>
  <path fill="#000000" d="M90.077 48.13h10.969V16.896h11.873V6.875H78.203v10.02h11.874V48.13z"/>
  <path fill="#000000" d="M117.734 48.13h10.969V32.455h14.079V48.13h10.969V6.876h-10.969v15.44h-14.079V6.877h-10.969V48.13z"/>
  <path fill="#000000" d="M160.974 48.13H172V6.877h-11.026V48.13z"/>
  <path fill="#000000" d="M179.245 48.13h10.969V35.637h4.806l7.973 12.495h12.665l-9.442-14.38c4.919-2.181 8.141-6.366 8.141-12.672v-.118c0-4.066-1.187-7.249-3.505-9.606-2.658-2.83-6.842-4.48-12.892-4.48h-18.715v41.256zm10.969-21.452v-9.901h7.181c3.675 0 5.937 1.65 5.937 4.892v.117c0 3.006-2.149 4.892-5.88 4.892h-7.238z"/>
  <path fill="#000000" d="M219.884 48.13H252v-9.724h-21.26v-6.542h18.998v-9.017H230.74V16.6h20.977V6.876h-31.833V48.13z"/>
  <defs>
    <linearGradient id="paint0_linear" x1="40.641" x2="40.641" y1="-.005" y2="54.491" gradientUnits="userSpaceOnUse">
      <stop offset="0" stop-color="#9795F8"/>
      <stop offset="1" stop-color="#4744F0"/>
    </linearGradient>
    <linearGradient id="paint1_linear" x1="17.488" x2="17.488" y1=".684" y2="55.181" gradientUnits="userSpaceOnUse">
      <stop offset="0" stop-color="#9795F8"/>
      <stop offset="1" stop-color="#4744F0"/>
    </linearGradient>
    <linearGradient id="paint2_linear" x1="33.245" x2="33.245" y1="-.695" y2="55" gradientUnits="userSpaceOnUse">
      <stop offset="0" stop-color="#9795F8"/>
      <stop offset="1" stop-color="#4744F0"/>
    </linearGradient>
  </defs>
</svg>
